<?xml version="1.0" encoding="UTF-8"?><svg xmlns="http://www.w3.org/2000/svg" viewBox="1.486 1.471 1400.758 1130.307" aria-hidden="true"><path fill="#2c4f7c" fill-opacity="0.14" d="M 996.522,119.307 C 998.234,121.708 1001.928,121.29 1002.098,121.401 C 1002.502,121.662 1002.687,122.205 1003.244,122.15 C 1004.112,122.064 1005.184,120.574 1005.987,121.647 C 1006.511,122.348 1006.749,123.209 1007.153,123.975 C 1008.609,126.734 1010.219,126.216 1010.52,130.126 C 1012.107,131.54 1015.286,131.237 1016.771,133.149 C 1016.383,134.019 1015.32,135.873 1015.686,136.821 C 1015.878,137.319 1016.458,137.373 1016.741,137.799 C 1017.446,138.865 1017.575,140.354 1018.541,141.275 C 1018.984,141.699 1020.196,142.122 1020.44,142.47 C 1020.52,142.584 1020.66,143.644 1020.802,143.941 C 1021.079,144.522 1021.829,144.659 1022.279,145.067 C 1022.817,145.557 1021.929,146.796 1024.49,148.631 C 1026.622,150.159 1026.371,148.607 1027.444,149.232 C 1027.95,149.527 1027.395,153.997 1027.806,154.435 C 1028.144,154.794 1031.802,153.435 1032.69,153.379 C 1032.838,155.836 1034.127,155.3 1034.781,156.697 C 1035.047,157.265 1034.541,158.801 1034.741,159.561 C 1035.215,159.758 1035.722,160.109 1035.685,160.685 C 1036.86,161.567 1039.43,162.049 1040.097,163.353 C 1040.774,164.674 1038.838,166.134 1039.273,166.927 C 1040.226,168.666 1041.948,169.914 1042.782,171.763 C 1043.359,173.045 1042.954,174.536 1043.555,175.802 L 1044.741,176.267 C 1043.819,180.04 1047.347,180.666 1048.49,183.317 C 1048.968,184.424 1049.094,185.758 1049.404,186.928 C 1049.581,187.595 1049.546,188.431 1049.193,189.053 C 1049.415,188.975 1049.701,188.846 1049.94,188.82 C 1051.165,188.685 1052.389,189.214 1053.605,189.279 C 1054.797,189.342 1055.957,188.812 1057.102,188.864 C 1057.254,188.871 1058.083,189.3 1058.279,189.388 C 1059.017,189.723 1064.866,192.253 1064.957,192.339 C 1065.667,193.014 1065.686,194.019 1066.201,194.806 C 1065.93,195.554 1064.889,197.118 1064.889,197.785 C 1064.889,200.15 1065.766,200.648 1066.427,202.632 C 1066.971,204.26 1066.486,205.925 1066.653,207.588 C 1066.858,209.629 1070.69,214.696 1072.287,216.08 C 1071.284,216.284 1069.459,217.323 1069.301,218.437 C 1070.98,220.625 1074.882,221.869 1075.884,223.148 C 1077.078,224.672 1076.536,226.832 1078.531,227.905 C 1081.717,229.618 1086.376,230.166 1087.377,230.707 C 1089.314,231.755 1088.599,233.973 1091.608,234.842 C 1092.248,237.44 1093.92,236.619 1094.504,237.531 C 1094.968,238.258 1095.196,240.259 1095.681,240.82 C 1096.322,241.563 1098.095,242.013 1098.984,242.731 C 1100.569,244.012 1102.87,246.925 1105.025,246.955 C 1106.056,246.968 1106.951,246.273 1107.989,246.267 C 1109.051,247.763 1109.584,249.378 1110.522,250.823 C 1111.18,251.837 1112.088,252.712 1112.785,253.824 C 1112.917,254.034 1115.085,253.717 1115.568,253.934 C 1116.638,254.414 1117.395,255.408 1118.396,256.001 L 1121.201,254.535 C 1122.439,255.179 1126.821,256.15 1127.333,256.556 C 1128.796,257.721 1128.476,259.564 1130.884,259.557 C 1132.725,260.904 1134.396,263.806 1135.41,264.558 C 1135.84,264.878 1136.772,264.709 1137.015,264.982 C 1137.579,265.618 1136.667,266.487 1137.105,267.159 C 1137.604,267.925 1138.902,267.662 1139.595,268.115 L 1144.594,271.382 C 1144.864,271.558 1145.69,271.027 1146.065,271.094 C 1146.84,271.234 1147.919,272.938 1147.965,273.693 C 1148.611,274.556 1148.751,274.58 1149.706,275.027 L 1150.52,274.825 C 1151.659,275.992 1152.304,275.593 1153.394,274.761 C 1153.774,274.928 1154.092,275.259 1154.276,275.628 C 1155.686,273.625 1157.973,275.933 1160.136,275.472 C 1161.039,274.455 1166.554,272.732 1167.896,273.005 C 1169.111,272.542 1169.025,271.836 1169.909,271.359 C 1169.591,272.723 1169.638,273.86 1169.525,275.227 C 1170.892,276.125 1171.637,277.066 1172.647,278.315 C 1173.096,278.374 1173.552,278.401 1174.004,278.36 L 1174.569,278.94 C 1174.601,279.357 1174.291,280.287 1174.479,280.607 L 1177.488,285.74 C 1177.603,285.936 1178.884,286.14 1179.184,286.296 C 1179.904,286.668 1180.421,287.287 1181.288,287.319 C 1182.276,287.355 1182.728,286.263 1183.617,286.03 L 1184.342,286.43 L 1185.383,286.097 C 1186.167,288.4 1187.97,287.78 1189.84,287.963 C 1190.67,288.045 1194.397,289.43 1195.27,289.853 L 1195.406,290.632 C 1195.977,291.095 1198.11,291.394 1198.868,291.386 L 1198.845,291.987 C 1199.513,292.803 1201.02,292.044 1201.627,291.499 C 1204.098,293.391 1206.323,290.205 1207.013,289.764 C 1207.308,289.576 1207.565,289.659 1207.826,289.298 C 1208.31,288.631 1207.883,286.632 1208.845,286.165 C 1209.366,288.517 1213.616,293.984 1215.24,296.102 C 1216.514,297.765 1217.954,299.784 1219.703,300.964 C 1222.392,302.779 1228.233,303.5 1231.257,302.294 C 1232.791,301.681 1233.381,299.714 1235.28,299.941 C 1236.944,303.748 1239.651,301.166 1240.761,301.338 C 1241.224,301.919 1241.326,302.675 1241.454,303.383 C 1242.673,310.123 1236.217,310.969 1238.055,313.609 C 1240.795,313.556 1242.617,316.455 1245.277,316.87 C 1245.732,319.55 1244.366,318.692 1245.393,321.388 C 1244.958,322.289 1244.864,324.873 1245.191,325.822 C 1244.261,328.759 1244.379,328.412 1246.666,330.055 C 1246.573,330.82 1245.666,333.813 1245.712,334.146 C 1246.215,337.788 1243.522,345.773 1245.827,347.956 C 1244.055,349.198 1244.986,350.227 1246.579,350.797 C 1247.355,352.047 1244.997,354.154 1244.525,355.259 C 1248.129,357.937 1246.101,359.136 1247.418,362.021 C 1249.533,366.657 1251.577,364.298 1253.145,365.828 C 1253.306,366.432 1253.332,367.078 1253.608,367.648 L 1254.186,367.818 C 1254.779,369.448 1254.741,369.145 1254.186,370.716 C 1255.231,375.326 1258.516,373.54 1255.777,379.126 C 1256.095,379.895 1255.891,380.562 1256.008,381.342 C 1256.324,381.664 1258.17,383.056 1258.09,383.416 C 1257.977,383.93 1256.972,384.147 1256.847,385.15 C 1256.676,386.511 1257.649,388.092 1258.004,389.382 C 1258.362,390.684 1257.427,391.775 1258.457,393.077 C 1259.186,393.331 1260.072,393.856 1260.867,393.589 C 1261.374,393.419 1261.698,391.599 1263.094,392.253 C 1266.579,393.884 1265.409,394.866 1267.287,396.941 C 1267.854,397.568 1268.727,398.04 1269.109,398.817 C 1269.404,399.416 1269.161,400.19 1269.543,400.75 C 1269.824,401.162 1270.45,401.083 1270.7,401.546 C 1270.909,401.933 1270.335,402.518 1270.296,402.937 C 1270.256,403.357 1271.184,405 1271.482,405.352 C 1272.568,406.632 1271.508,409.222 1273.333,409.869 C 1273.574,410.739 1274.265,411.191 1275.155,411.149 C 1275.078,411.974 1274.348,413.524 1274.605,414.246 C 1275.338,416.308 1278.349,421.46 1278.133,423.48 C 1277.882,425.835 1276.42,428.013 1277.151,430.441 C 1277.479,431.534 1278.802,431.723 1279.174,432.772 C 1279.652,434.114 1279.373,436.219 1280.187,437.402 C 1280.889,438.421 1282.333,438.653 1282.964,439.733 C 1282.867,442.226 1284.027,444.743 1285.827,446.44 C 1286.272,446.86 1287.003,447.522 1287.62,447.632 C 1287.862,447.676 1288.667,447.41 1288.69,447.831 C 1288.754,448.995 1289.084,452.935 1288.873,453.884 C 1288.719,454.579 1287.355,455.088 1287.446,455.729 C 1287.646,457.132 1290.099,458.972 1291.321,459.48 C 1294.707,457.043 1294.489,460.404 1297.569,460.048 C 1298.644,459.923 1299.325,458.511 1300.49,458.826 C 1301.41,461.439 1301.315,461.556 1303.729,461.326 C 1305.808,458.93 1305.46,460.341 1307.228,460.559 C 1307.908,460.643 1308.818,460.145 1309.658,460.275 C 1310.277,461.453 1310.618,464.985 1311.683,465.559 C 1312.106,467.176 1313.208,467.077 1313.361,467.662 C 1314.055,470.34 1311.62,470.657 1314.376,473.145 C 1314.809,473.535 1315.49,473.127 1315.972,473.413 C 1316.777,475.236 1316.532,477.6 1317.458,479.282 C 1317.77,479.846 1318.453,480.115 1318.719,480.693 C 1319.479,482.345 1319.685,483.527 1320.79,485.067 C 1320.705,489.338 1321.699,487.943 1322.107,489.657 C 1318.886,494.335 1322.739,495.678 1322.169,497.81 C 1321.89,498.853 1320.467,498.894 1319.765,499.391 C 1319.364,499.676 1319.319,501.803 1318.592,502.11 C 1317.988,502.366 1317.101,501.622 1316.552,501.978 C 1315.314,502.783 1315.342,504.878 1314.487,506.032 C 1313.904,506.816 1309.677,512.871 1309.769,513.186 C 1310.018,514.042 1309.835,514.194 1309.436,514.954 C 1307.876,515.057 1306.849,515.828 1306.168,517.216 C 1305.631,517.437 1305.454,517.885 1305.19,518.359 L 1304.604,518.496 C 1304.15,519.289 1303.304,519.732 1302.845,520.511 C 1302.01,521.924 1302.112,523.931 1300.839,525.055 L 1300.98,526.413 L 1299.834,526.767 C 1299.62,527.222 1299.62,527.797 1299.808,528.261 C 1299.613,528.898 1299.107,529.469 1298.694,529.977 L 1297.241,530.142 C 1296.057,531.245 1297.22,532.88 1298.223,533.62 C 1298.197,534.328 1298.187,536.058 1297.947,536.639 L 1296.858,537.049 C 1295.556,536.252 1295.144,535.103 1293.758,537 L 1292.975,536.593 C 1292.294,536.554 1291.727,536.986 1291.047,536.706 C 1288.766,535.766 1288.392,536.828 1286.384,537.097 L 1286.158,536.39 C 1285.368,536.959 1285.677,537.987 1285.212,538.73 C 1284.552,539.024 1283.743,539.082 1283.315,539.741 L 1282.283,539.77 C 1281.549,540.55 1282.311,543.003 1281.926,543.958 C 1281.588,544.796 1280.459,545.478 1280.618,546.487 C 1280.817,547.751 1283.448,548.647 1283.166,550.803 C 1283.089,551.398 1282.718,551.902 1282.609,552.49 C 1283.76,554.703 1283.663,554.516 1282.953,556.838 C 1283.467,558.991 1282.808,558.481 1282.064,560.158 C 1282.533,561.727 1281.668,562.503 1282.49,564.395 C 1281.933,565.205 1281.64,566.178 1281.378,567.116 C 1282.19,568.414 1281.444,574.22 1283.095,575.594 C 1285.312,575.702 1286.91,574.897 1286.893,577.922 C 1288.071,578.739 1288.415,579.25 1289.186,580.526 C 1289.127,580.972 1288.928,581.395 1288.657,581.751 C 1288.703,582.397 1289.33,582.835 1289.33,583.49 C 1289.33,586.249 1289.18,588.638 1292.379,589.516 C 1292.37,590.033 1292.449,590.556 1292.326,591.066 L 1292.605,591.744 C 1292.051,592.963 1291.272,594.146 1290.602,595.308 C 1290.669,596.574 1291.259,597.865 1290.775,599.115 C 1291.248,600.043 1291.586,602.197 1290.361,602.595 C 1289.285,602.222 1287.357,602.261 1286.374,602.875 C 1286.439,604.912 1286.132,605.829 1285.629,607.742 L 1286.16,608.664 C 1285.727,609.921 1288.607,615.992 1289.964,616.32 C 1290.59,617.083 1291.14,617.913 1291.64,618.763 C 1291.531,619.143 1291.512,619.582 1291.726,619.932 C 1291.657,621.2 1290.879,622.335 1291.286,623.628 C 1290.256,625.161 1292.166,628.019 1287.141,629.482 L 1285.275,633.21 C 1285.68,633.738 1286.619,634.08 1286.864,634.654 C 1286.612,635.138 1286.446,635.652 1286.309,636.179 C 1286.663,637.141 1287.636,639.844 1287.008,640.731 C 1287.062,641.303 1286.863,643.505 1287.093,643.837 C 1287.513,644.443 1289.231,644.652 1289.88,645.526 C 1289.603,646.7 1289.639,648.102 1289.158,649.206 C 1288.947,649.691 1288.281,650.495 1288.38,651.031 C 1289.358,656.322 1300.394,661.423 1293.429,666.565 C 1292.536,668.681 1291.44,670.702 1290.415,672.756 C 1289.813,672.693 1288.706,672.238 1288.162,672.43 C 1286.438,673.04 1284.358,679.027 1282.776,680.627 C 1282.897,681.944 1283.654,683.214 1283.648,684.524 C 1284.244,685.101 1286.61,686.231 1286.79,686.838 C 1286.948,687.374 1286.534,687.896 1286.624,688.445 C 1286.926,690.299 1287.948,692.329 1288.694,694.049 C 1288.938,694.612 1289.43,695.546 1289.322,696.164 C 1288.968,698.173 1287.255,700.098 1287.413,702.397 L 1288.079,712.072 C 1288.097,712.337 1288.733,713.491 1288.84,714.034 C 1288.296,715.263 1288.893,719.36 1288.362,721.287 C 1287.44,721.835 1283.302,722.273 1282.311,721.876 C 1281.694,722.035 1279.56,724.837 1279.054,725.505 C 1275.236,728.625 1276.754,730.193 1270.843,728.919 L 1270.607,730.701 C 1266.519,729.791 1263.937,728.588 1259.62,729.506 L 1259.69,730.055 C 1257.626,730.94 1255.197,731.181 1253.022,730.576 C 1252.523,729.943 1251.892,729.417 1251.475,728.72 C 1250.921,729.791 1249.084,729.119 1247.896,729.755 C 1247.353,729.489 1246.832,729.601 1246.352,729.93 C 1244.495,729.562 1242.971,729.073 1241.051,729.453 C 1240.464,729.569 1239.955,729.675 1239.366,729.489 C 1239.071,729.998 1237.129,730.846 1236.526,731.179 C 1235.997,730.908 1235.103,730.654 1234.734,730.183 C 1233.298,730.529 1231.791,731.251 1230.349,731.704 C 1228.284,730.849 1224.284,731.77 1222.561,733.125 C 1222.021,733.163 1221.423,732.946 1220.981,732.646 L 1219.824,733.096 L 1218.944,732.305 L 1217.891,732.032 L 1216.375,730.04 L 1216.689,729.28 C 1215.756,728.964 1215.412,727.87 1214.718,727.257 C 1212.687,727.869 1214.435,729.69 1213.323,730.941 C 1211.589,729.883 1211.826,730.703 1210.304,730.877 L 1209.355,730.191 L 1209.282,729.193 L 1208.545,729.365 C 1208.561,730.181 1207.898,730.747 1207.357,731.26 L 1207.782,732.602 C 1206.247,733.841 1206.671,734.515 1205.65,735.704 L 1204.633,736.016 L 1204.74,736.946 C 1203.031,736.88 1202.783,736.592 1202.393,738.395 C 1201.81,738.128 1199.321,737.465 1198.881,737.921 L 1194.392,738.561 L 1193.83,738.311 L 1193.936,739.068 C 1193.673,739.563 1192.624,739.727 1192.151,740.345 C 1191.219,741.561 1188.393,749.264 1188.079,750.849 C 1188.049,751.003 1189.066,756.184 1189.22,756.593 L 1190.238,756.659 C 1192.697,758.415 1193.117,759.412 1191.166,761.716 C 1191.471,762.732 1190.35,763.373 1191.315,764.433 L 1190.686,765.365 L 1189.775,765.71 L 1189.672,766.297 L 1190.094,766.846 C 1188.713,767.014 1189.159,767.949 1188.803,768.913 C 1188.381,769.155 1188.022,769.51 1187.754,769.914 C 1187.746,770.758 1188.527,770.976 1188.917,771.599 C 1188.095,773.337 1190.152,774.52 1190.05,775.311 C 1189.361,780.663 1188.319,785.913 1187.785,791.309 C 1186.667,802.621 1186.259,813.991 1185.128,825.303 C 1184.68,829.787 1185.163,835.063 1183.854,839.362 C 1183.526,840.438 1176.413,851.095 1175.636,851.636 C 1174.005,852.771 1170.58,852.368 1168.587,852.787 L 1166.304,855.441 C 1162.793,854.064 1161.917,848.901 1159.412,846.533 C 1158.096,845.289 1156.426,844.639 1155.131,843.476 C 1154.612,843.01 1153.891,840.617 1153.816,839.885 C 1152.303,840.022 1152.294,838.621 1151.71,837.657 C 1151.066,836.595 1148.325,835.55 1149.495,833.947 C 1149.145,832.759 1148.153,831.92 1147.748,830.763 C 1146.972,830.255 1146.108,829.906 1145.3,829.457 C 1144.994,828.376 1145.023,827.234 1144.738,826.148 C 1143.041,826.421 1141.499,827.267 1139.773,827.411 L 1139.326,829.074 L 1138.805,829.444 C 1138.197,829.461 1137.589,829.134 1137.041,829.148 C 1134.632,829.205 1134.552,833.817 1133.953,835.145 C 1133.558,836.02 1132.161,836.333 1131.924,837.128 C 1131.442,838.742 1135.019,839.715 1131.895,843.728 C 1131.754,845.779 1124.616,853.551 1123.009,855.836 C 1122.217,856.963 1121.767,858.304 1120.821,859.324 C 1119.514,860.732 1109.317,868.658 1107.841,869.233 C 1106.949,869.027 1106.06,869.295 1105.162,869.291 C 1101.172,869.277 1099.391,868.298 1097.101,865.063 C 1095.748,863.152 1095.377,863.865 1094.289,861.089 C 1086.389,861.273 1079.398,861.623 1071.671,863.113 C 1070.854,863.271 1067.96,863.978 1067.347,863.809 C 1066.554,864.451 1059.599,867.012 1058.869,866.741 C 1057.943,867.29 1057.012,867.891 1056.022,868.32 C 1055.576,868.15 1055.217,867.818 1054.752,867.692 C 1051.422,868.868 1051.015,866.386 1047.753,869.74 L 1046.931,869.776 C 1046.24,868.797 1043.861,867.831 1043.609,867.197 L 1043.048,867.048 C 1042.662,867.33 1042.173,867.465 1041.7,867.489 C 1041.226,867.181 1040.797,866.675 1040.207,866.602 L 1039.831,867.522 C 1038.922,867.705 1038.016,868.138 1037.434,868.88 C 1036.916,868.712 1036.407,868.457 1036.052,868.032 C 1034.149,867.557 1031.949,870.397 1031.043,867.178 C 1028.395,867.027 1025.253,869.928 1022.926,867.615 C 1022.881,865.313 1018.546,863.029 1016.691,862.237 C 1016.192,860.015 1017.168,859.22 1018.533,857.713 C 1012.956,855.486 1013.679,856.51 1010.598,860.173 L 1006.261,859.471 C 1006.021,858.112 1004.936,858.417 1004.056,857.814 C 1003.895,856.634 1001.452,856.46 1000.578,856.745 C 1000.104,857.507 998.934,858.971 998.704,859.725 L 997.955,860.13 C 996.182,859.017 993.268,857.765 991.15,858.251 L 991.073,859.392 C 990.361,859.879 989.758,859.321 989.091,859.502 C 989.145,860.339 989.027,861.833 987.779,861.598 L 987.256,860.973 C 986.38,861.452 985.515,861.979 984.785,862.666 L 984.037,862.407 C 982.872,863.011 983.938,865.857 984.219,867.045 C 983.199,867.374 981.611,867.315 980.629,866.86 C 980.835,866.033 980.942,865.172 980.069,864.726 C 980.082,864.077 979.954,863.432 979.773,862.812 C 980.219,861.929 980.402,860.945 980.823,860.052 C 979.665,858.98 979.888,856.598 979.444,855.084 C 976.067,853.345 978.125,850.706 979.077,848.24 L 978.527,848.264 C 977.65,848.951 976.422,848.853 975.52,849.493 C 974.524,850.2 974.622,851.206 973.125,851.186 C 970.101,851.146 970.31,852.914 967.514,849.162 C 964.127,847.901 960.58,845.339 957.038,846.702 C 956.607,846.235 956.077,846.054 955.542,845.746 C 954.084,844.908 954.659,842.813 954.459,841.441 C 953.191,840.158 951.25,840.045 949.557,840.194 C 949.044,839.931 948.658,839.448 948.472,838.907 C 947.313,838.961 944.004,839.391 943.12,839.171 L 942.82,839.959 L 941.576,838.894 C 940.371,838.765 938.371,841.391 937.241,840.827 C 933.437,838.931 934.922,840.225 931.383,839.963 C 930.261,839.199 928.672,838.714 927.812,837.637 C 927.516,837.267 927.371,836.814 927.008,836.494 C 925.707,837.036 924.617,837.967 923.356,838.585 C 923.106,839.401 922.527,840.052 922.071,840.756 L 922.071,841.977 C 918.297,840.668 907.372,842.483 904.856,845.422 C 904.936,846.918 904.211,847.514 903.452,848.655 L 902.931,848.772 C 901.021,855.457 900.798,852.674 896.915,856.666 C 896.824,857.516 896.444,858.326 896.476,859.19 C 895.578,860.144 895.549,861.496 894.832,862.544 C 894.712,862.72 890.26,864.817 889.98,864.837 C 887.405,865.014 887.376,862.637 885.248,865.749 C 884.18,865.409 882.912,864.818 882.078,864.061 C 880.204,864.39 878.934,860.409 877.38,859.375 C 875.881,858.379 872.569,858.129 871.482,857.255 C 870.859,856.754 870.366,856.033 869.474,856.076 C 869.031,856.561 868.518,857.035 867.87,857.222 C 866.792,856.624 866.49,855.964 865.141,856.439 L 864.538,855.533 C 863.929,855.287 863.638,854.489 863.773,853.878 C 863.386,853.377 862.734,853.212 862.287,852.779 L 861.003,852.819 L 860.561,852.189 C 860.59,851.237 861.42,850.694 861.963,850.019 C 861.819,847.585 859.67,847.045 858.746,845.134 C 858.229,845.13 857.725,845.222 857.262,845.453 C 856.557,845.369 855.912,845.073 855.254,844.828 C 854.893,843.562 853.955,842.257 852.561,842.073 C 852.826,847.231 851.495,851.428 845.432,850.172 C 844.826,852.254 846.003,851.658 843.47,852.778 C 843.121,857.298 836.808,855.919 837.263,859.3 C 836.324,860.155 832.717,859.685 831.367,859.827 C 829.332,860.041 827.471,861.04 825.433,861.264 C 825.017,861.642 824.981,862.121 824.673,862.527 C 824.301,863.018 820.616,863.136 819.858,863.188 C 819.446,863.557 819.026,864.01 818.48,864.177 C 816.07,863.361 818.64,862.096 813.418,862.781 C 813.024,863.036 812.487,863.231 812.008,863.142 C 811.79,862.602 811.538,862.054 811.14,861.621 L 809.427,862.082 C 808.785,863.474 808.151,865.923 806.7,866.665 C 806.284,866.878 805.842,866.88 805.492,867.225 C 804.783,867.924 804.775,869.118 803.943,869.73 L 802.97,869.566 L 801.996,870.059 C 799.124,869.167 800.091,871.913 798.937,873.784 C 798.356,873.871 797.827,873.548 797.26,873.484 C 794.665,875.079 791.806,876.242 789.371,878.095 C 788.827,880.865 788.91,879.621 787.421,880.931 C 782.337,885.406 780.865,884.006 778.897,885.643 C 779.053,886.937 780.333,888.601 779.831,889.869 L 778.858,890.197 L 779.327,890.858 C 779.469,892.762 778.416,892.964 777.813,894.42 C 777.347,895.546 777.71,896.816 777.306,897.951 C 777.079,898.586 776.532,899.037 776.231,899.633 C 777.93,901.509 780.212,905.214 778.801,907.722 C 779.227,909.234 780.691,910.272 781.007,911.715 L 780.236,911.749 C 779.506,912.53 779.435,913.477 778.859,914.257 C 778.59,914.621 775.348,917.402 774.967,917.488 L 774.767,916.894 C 773.99,917.243 773.98,918.201 773.291,918.64 C 772.773,918.97 766.576,917.76 765.519,917.547 C 766.267,920.091 766.271,923.332 766.549,925.996 C 765.887,926.249 765.166,925.875 764.506,925.797 C 764.166,926.776 762.236,926.722 761.423,927.114 C 761.645,927.679 761.829,928.263 761.924,928.865 C 761.334,929.281 760.694,929.545 760.048,929.854 C 755.74,929.253 757.247,931.593 754.889,931.138 C 754.777,931.677 754.864,932.284 754.754,932.788 C 754.59,933.543 752.493,933.74 751.94,934.472 C 750.9,935.845 750.252,937.521 749.223,938.925 C 749.324,939.696 749.673,940.388 749.858,941.136 C 748.937,943.346 749.49,944.502 747.235,946.262 C 745.619,947.523 741.205,945.615 739.909,949.343 C 739.484,949.573 738.49,950.551 738.137,950.598 C 731.802,951.441 731.348,955.981 729.343,955.46 C 728.178,956.548 727.634,958.198 726.239,959.061 C 726.362,961.186 725.755,969.359 727.269,970.264 C 728.008,972.222 729.609,974.361 727.283,975.965 C 727.441,976.614 727.602,977.27 727.889,977.876 C 725.639,981.461 720.979,979.412 720.55,986.134 L 719.246,986.629 C 718.35,988.637 716.314,987.589 714.698,987.333 C 713.048,988.424 710.987,987.973 709.147,987.844 C 707.686,989.098 705.343,990.603 703.366,989.77 L 703.363,988.946 C 702.263,987.406 697.089,985.642 695.393,985.815 C 694.571,986.461 693.523,986.778 692.481,986.715 C 692.071,986.379 691.357,985.65 691.304,985.101 C 687.297,981.887 687.513,982.733 683.885,980.572 C 683.521,980.355 683.023,980.477 682.646,980.577 C 681.891,979.716 680.326,977.183 678.885,978.442 C 678.424,978.845 678.101,979.73 677.417,979.901 C 676.715,980.078 675.999,979.225 674.97,979.611 C 674.116,979.931 673.122,980.622 672.225,980.049 L 671.887,979.523 C 667.029,981.185 671.433,983.717 667.118,985.482 C 665.758,987.245 657.968,996.233 663.044,997.346 C 662.974,998.092 662.965,998.876 662.719,999.591 C 662.996,1000.32 663.52,1000.923 664.065,1001.469 C 663.842,1003.123 664.076,1004.752 663.783,1006.42 C 662.562,1006.845 662.431,1006.066 661.606,1006.066 C 660.68,1006.066 659.875,1006.62 658.928,1006.538 C 657.869,1006.446 656.951,1005.809 655.944,1005.527 C 651.286,1004.225 652.943,1005.311 649.691,1007.201 C 649.29,1007.434 648.548,1006.889 648.048,1006.976 L 647.382,1007.872 C 646.751,1008.054 646.142,1008.044 645.645,1008.537 C 645.493,1010.424 644.152,1015.394 641.446,1013.012 C 637.683,1013.491 636.459,1016.096 634.276,1019.018 C 632.371,1017.94 631.773,1017.995 630.43,1019.628 C 630.481,1020.414 629.987,1020.732 629.701,1021.382 C 628.171,1024.864 629.203,1024.422 626.047,1027.176 C 625.235,1026.839 624.557,1026.237 623.965,1025.6 C 623.364,1025.633 622.65,1025.676 622.189,1025.212 C 619.473,1026.224 616.842,1027.807 613.898,1027.034 C 613.084,1026.125 613.242,1022.629 612.564,1021.233 C 612.002,1020.073 607.671,1019.061 606.488,1017.865 C 604.687,1016.044 604.808,1013.827 604.087,1013.024 C 603.211,1012.049 601.944,1011.538 601.126,1010.499 C 600.574,1009.799 597.222,1005.08 597.077,1004.611 C 596.838,1003.835 597.092,1002.886 596.662,1002.171 C 596.223,1001.44 595.03,1001.388 594.345,1000.994 C 593.648,1000.595 593.672,1000.191 593.165,999.813 L 589.59,1001.054 C 585.442,999.315 580.532,1000.112 576.389,998.362 C 563.676,1002.422 564.283,1003.121 552.826,995.705 L 552.225,995.24 C 548.518,995.094 544.817,994.819 541.108,994.73 C 535.236,999.321 530.058,1004.709 524.564,1009.727 C 521.886,1012.173 518.96,1014.36 516.398,1016.933 C 515.678,1017.657 515.154,1018.564 514.347,1019.204 C 512.012,1018.59 504.112,1023.516 501.779,1023.357 C 500.469,1024.283 498.09,1024.428 496.519,1024.758 C 495.434,1024.062 493.898,1024.404 492.87,1025.046 C 492.707,1025.486 492.456,1026.143 492.028,1026.397 C 490.279,1027.437 477.844,1027.265 475.154,1028.663 C 468.325,1027.085 471.012,1027.974 465.207,1031.248 L 460.729,1029.255 C 461.069,1026.985 458.877,1025.378 458.386,1023.308 C 456.961,1022.112 448.545,1017.922 447.08,1019.122 C 444.967,1015.427 441.466,1016.845 438.279,1016.083 C 438,1016.652 434.476,1019.615 433.722,1020.268 C 430.424,1020.725 428.471,1020.565 424.879,1021.592 C 424.085,1023.325 423.741,1023.697 422.075,1024.617 C 421.047,1029.158 418.305,1026.138 415.481,1032.209 C 412.993,1033.37 411.497,1032.248 408.951,1034.026 C 407.142,1033.717 405.288,1034.481 403.506,1034.127 C 402.797,1033.986 402.505,1033.504 401.704,1033.725 C 400.326,1034.105 399.962,1034.734 398.31,1034.76 C 375.628,1035.123 352.938,1034.083 330.253,1034.173 C 329.54,1027.845 327.398,1013.361 329.659,1007.828 C 329.347,1006.194 326.256,1004.912 325.436,1003.344 C 324.872,1002.266 324.912,999.778 323.766,999.205 C 322.808,998.726 321.611,998.832 320.625,999.164 C 318.249,997.057 315.951,990.527 311.832,992.172 C 309.679,988.162 306.45,993.029 304.21,993.029 C 302.313,993.029 300.717,991.906 298.935,991.431 C 297.345,992.453 296.933,994.388 297.008,996.16 C 295.56,995.77 290.37,994.927 289.514,994.31 C 288.542,993.613 288,992.473 287.169,991.635 C 282.48,990.796 270.472,985.003 265.81,982.604 C 262.469,987.283 258.983,992.109 256.603,997.368 C 255.838,999.056 257.248,1002.049 255.22,1003.114 C 251.994,1004.808 249.268,1008.694 245.422,1008.461 C 241.923,1008.249 239.3,1005.731 235.959,1005.088 C 234.193,1004.748 231.81,1005.784 230.432,1004.267 C 226.976,1004.853 224.015,1006.218 220.633,1004.43 C 219.438,1003.797 219.721,1002.503 217.881,1002.839 C 216.984,1002.382 210.12,998.974 210.039,998.711 C 204.528,980.941 199.629,962.373 195.862,944.156 C 195.414,941.988 195.478,939.73 194.822,937.602 C 189.78,921.263 185.282,904.756 180.103,888.46 C 177.285,888.588 161.938,890.017 160.767,888.134 C 160.203,887.982 159.732,888.249 159.173,888.216 C 154.344,887.925 148.834,886.915 144.32,885.166 C 143.389,883.64 143.438,881.85 142.873,880.201 C 141.905,877.381 138.846,875.822 138.026,872.965 C 137.743,871.978 138.374,870.102 139.621,870.162 C 139.676,869.552 140.173,869.117 140.544,868.679 L 140.628,867.688 L 141.047,867.113 C 140.845,866.739 140.516,865.907 140.628,865.463 C 141.834,864.511 143.351,864.558 144.74,863.403 C 146.265,862.134 143.391,859.508 143.145,858.291 L 143.732,857.302 C 143.362,856.776 142.398,856.429 141.802,856.232 C 142.526,853.786 140.003,851.191 138.278,849.718 C 137.195,845.64 139.46,846.411 136.125,842.618 C 135.429,842.627 134.22,839.889 133.579,839.166 L 133.495,838.424 L 131.565,837.27 L 131.817,836.693 C 130.692,834.858 129.785,832.834 128.796,830.922 C 128.451,830.256 126.942,829.471 126.362,828.697 C 126.55,828.267 126.778,827.851 127.033,827.459 C 127.018,826.705 126.872,825.876 127.369,825.233 C 127.085,824.433 127.06,823.489 126.446,822.842 L 126.446,822.018 C 124.889,821.292 124.978,822.79 124.115,823.403 C 122.489,822.861 119.648,819.007 118.225,819.807 L 118.306,820.864 L 116.376,820.617 C 116.07,818.215 111.931,817.379 113.522,813.61 L 113.354,812.456 C 113.16,810.452 112.168,809.411 111.759,807.591 C 110.734,807.169 108.552,805.406 109.409,804.13 C 108.89,802.513 108.7,800.136 106.723,799.761 C 106.672,799.162 106.207,798.66 105.716,798.36 C 104.978,796.265 107.107,796.016 105.969,794.072 L 106.328,792.898 C 105.84,791.053 110.444,789.13 107.31,787.394 C 106.717,785.641 105.52,784.012 105.045,782.285 C 105.357,781.335 104.767,780.682 105.883,780.057 C 104.662,779.517 103.965,777.967 103.87,776.677 C 105.387,774.682 101.535,769.439 104.289,767.196 C 104.826,764.114 106.567,763.526 102.666,761.267 C 102.213,760.354 100.752,755.246 102.61,755.243 C 102.577,754.722 102.574,754.188 102.694,753.677 C 102.28,753.179 101.827,752.715 101.351,752.276 C 102.091,745.033 98.938,746.656 97.577,741.434 C 97.285,740.313 98.191,738.617 97.827,737.848 C 97.517,737.198 96.419,736.705 95.729,736.778 C 95.135,736.369 94.037,734.903 93.798,734.221 L 94.973,733.891 C 95.018,732.332 96.907,732.403 97.575,731.253 C 96.549,728.852 95.403,725.825 99.235,725.535 C 100.742,726.525 102.108,727.711 103.617,728.697 C 103.904,729.675 105.299,731.006 105.968,731.831 L 106.471,731.831 L 108.066,730.841 C 108.392,727.97 111.845,728.946 110.92,725.234 L 111.339,724.576 L 111.132,721.04 C 112.609,720.004 114.296,719.159 115.878,718.288 C 116.102,717.868 116.208,717.383 116.205,716.908 C 115.891,716.458 115.738,715.891 115.786,715.345 C 116.304,714.644 117.1,713.994 117.549,713.283 C 117.786,712.904 117.423,712.272 117.8,711.966 C 118.923,711.05 119.728,711.347 120.053,709.525 C 120.492,709.241 120.984,709.035 121.492,708.914 C 125.515,704.044 121.049,704.553 120.15,701.989 C 121.069,700.462 123.048,701.22 122.248,697.951 L 122.835,697.455 C 123.257,695.417 123.414,693.341 124.681,691.602 C 125.673,691.167 126.726,690.873 127.66,690.311 C 127.328,688.265 126.999,686.218 126.612,684.181 L 125.605,683.276 L 125.773,681.545 C 122.391,680.049 119.791,677.11 116.71,675.115 C 117.467,673.533 118.635,669.616 116.123,669.095 L 115.535,669.467 C 114.632,669.339 112.394,669.1 111.508,669.426 L 110.668,669.014 L 110.165,668.271 L 109.242,667.859 C 108.344,667.969 107.382,667.976 106.807,668.767 C 106.235,668.707 105.893,668.229 105.381,668.025 L 104.458,668.437 C 104.002,665.784 102.334,665.803 102.024,664.398 C 101.581,662.384 103.699,661.993 104.038,660.276 L 103.367,659.203 L 103.367,658.544 C 102.991,658.171 102.614,657.795 102.192,657.474 C 101.626,655.975 100.242,650.585 99.254,649.806 L 99.17,649.229 C 99.415,648.51 99.626,644.754 99.17,644.199 L 99.254,643.624 C 98.631,642.991 96.847,638.244 96.319,637.051 C 93.896,631.578 91.698,634.4 89.603,632.823 C 87.745,627.123 85.525,633.711 83.263,631.149 C 81.602,629.266 86.299,626.249 87.124,624.92 C 86.626,622.306 81.692,624.085 80.728,623.957 C 80.035,623.865 75.842,620.664 75.772,620.107 C 75.634,619.027 75.394,618.462 75.137,617.446 C 74.908,616.539 78.106,611.63 79.114,611.273 C 81.758,610.336 83.095,612.92 85.166,608.839 C 84.957,606.918 84.37,605.067 84.023,603.171 C 83.481,602.843 83.843,602.35 82.918,602.213 L 82.572,601.138 L 79.978,600.457 C 79.714,599.89 79.717,599.269 79.978,598.704 C 79.252,598.098 78.09,598.129 77.846,597.911 C 77.484,597.589 77.134,596.461 77.212,595.985 C 77.338,595.22 82.907,592.462 83.781,592.248 C 85.061,591.935 87.73,592.713 89.397,592.442 C 89.896,592.361 90.533,591.988 91.043,592.19 C 91.524,592.381 91.764,592.764 92.369,592.871 C 95.877,589.931 97.152,591.31 100.265,589.757 C 103.242,588.272 104.002,589.571 106.893,589.529 L 108.794,588.116 L 110.005,588.116 C 110.651,587.386 111.171,586.552 111.849,585.849 C 113.644,583.993 116.292,582.989 118.017,581.094 C 118.413,580.66 118.517,580.098 119.226,580.131 C 120.539,580.193 121.985,580.205 122.627,578.716 C 123.68,578.695 125.095,578.288 125.969,577.695 C 125.128,575.619 125.506,573.408 124.99,571.297 C 124.791,570.479 123.577,569.648 123.665,568.806 C 124.08,564.839 125.7,564.786 121.302,562.183 C 120.646,560.528 121.354,558.454 120.668,557.088 C 120.115,555.987 118.783,555.288 118.535,554.029 L 117.901,553.688 C 118.256,553.38 118.667,553.157 119.112,553.008 L 119.226,552.217 C 115.274,548.801 116.362,546.037 110.293,544.458 L 109.946,543.327 C 112.207,539.808 110.476,539.448 111.387,537.042 L 110.638,535.344 C 110.735,534.874 111.034,534.385 111.014,533.897 C 110.998,533.538 108.725,531.222 108.332,530.757 C 107.662,529.963 106.89,528.309 106.143,527.758 C 109.674,522.737 109.655,520.056 111.214,514.734 C 111.645,513.267 112.525,511.84 112.424,510.262 L 111.618,509.581 C 110.887,506.608 112.085,502.783 111.098,500.069 C 110.851,499.387 110.211,499.042 109.773,498.503 C 108.957,497.5 108.718,496.141 107.813,495.199 C 105.879,493.187 105.957,493.065 105.624,490.217 L 104.875,489.369 C 105.061,488.918 105.062,488.426 105.335,488.008 C 104.806,487.173 105.28,484.323 105.45,483.312 C 105.983,482.758 106.706,482.449 107.238,481.893 C 107.246,478.795 107.028,475.001 107.41,471.986 C 107.527,471.066 108.567,470.688 109.1,470.042 C 110.51,468.333 111.216,462.893 113.288,461.286 C 114.356,460.459 115.744,459.988 115.42,458.247 C 115.27,457.438 113.319,456.454 113.634,455.511 C 114.036,454.305 117.673,453.633 118.791,453.782 C 121.193,452.343 121.184,449.545 120.55,447.131 C 125.234,447.63 133.619,453.699 132.973,444.963 C 132.885,443.779 133.859,442.869 133.716,442.211 C 129.876,439.259 131.79,434.583 130.577,430.598 C 129.9,428.375 128.124,427.603 126.889,425.843 C 126.86,424.588 127.662,423.497 127.811,422.277 C 127.979,420.889 127.719,419.564 127.811,418.199 C 127.913,416.695 128.788,415.42 128.848,413.782 C 129.05,408.365 125.954,403.582 127.425,397.994 C 130.751,397.539 130.425,395.731 132.536,394.305 C 134.431,393.025 140.262,394.076 143.278,392.561 C 144.826,396.194 147.978,398.796 150.434,401.786 C 151.495,403.076 155.717,408.049 157.252,408.042 C 157.778,408.04 158.946,406.65 159.383,406.272 C 161.537,404.406 163.977,402.884 166.11,400.993 C 168.567,398.814 166.319,397.765 171.153,395.414 C 183.55,389.384 185.013,403.637 186.703,404.476 C 187.18,404.712 194.419,402.011 195.29,401.522 C 197.252,400.423 198.864,398.819 200.758,397.62 C 202.348,396.614 204.6,396.308 205.981,395.078 C 206.687,394.449 207.184,392.458 207.821,392.162 C 209.131,391.555 210.892,393.356 212.024,392.287 C 213.539,390.856 212.385,386.758 213.629,384.529 C 215.632,380.939 218.588,382.111 219.714,380.368 C 220.203,379.611 220.426,378.715 220.919,377.961 C 221.22,377.502 222.087,376.41 222.502,376.078 C 224.854,374.2 226.652,371.047 228.327,368.55 C 229.634,366.602 235.806,366.467 236.318,365.048 C 236.847,363.577 232.86,362.206 231.974,361.443 C 229.361,359.191 221.442,352.395 221.442,348.898 C 221.442,347.489 227.765,346.059 227.513,341.403 C 227.418,339.65 222.543,329.528 221.255,328.24 C 220.54,327.526 219.518,327.107 218.969,326.23 C 216.721,322.638 220.133,307.529 219.838,306.246 C 219.603,305.224 218.026,299.606 218.354,298.753 C 218.542,298.265 219.957,297.269 220.377,296.669 C 221.093,295.648 221.33,294.368 222.177,293.426 C 223.313,292.161 226.136,289.209 225.939,287.442 C 224.323,286.422 221.823,282.569 223.238,281.578 C 224.968,280.365 227.264,279.982 228.938,278.634 C 229.937,277.829 230.273,276.481 231.259,275.669 C 231.723,275.288 232.364,275.177 232.741,274.682 C 234.25,272.703 232.582,272.153 236.155,270.435 C 234.198,268.039 236.973,263.397 239.597,263.124 C 241.725,262.903 243.752,264.177 244.396,264.149 C 248.801,263.961 255.199,262.703 259.358,261.655 C 260.79,261.295 262.716,253.88 264.52,253.467 C 266.332,253.053 268.179,254.052 269.894,253.625 C 270.658,253.435 271.362,252.889 272.172,252.916 C 273.903,252.974 275.5,254.093 277.289,253.915 C 279.333,253.712 282.434,254.798 284.732,255.134 C 285.867,255.3 288.718,252.815 289.283,251.891 C 289.585,251.398 289.643,250.744 290.019,250.295 C 290.966,249.165 292.549,248.674 293.513,247.533 C 295.214,245.521 296.247,244.3 298.451,242.742 C 299.315,240.539 299.312,238.459 299.346,238.385 C 299.609,237.804 300.476,237.617 300.786,236.967 C 301.09,236.331 300.516,235.586 300.952,234.976 C 307.218,237.161 308.372,229.454 312.651,228.887 C 316.844,228.332 321.353,230.61 325.008,229.477 C 326.317,229.072 327.231,227.872 328.616,227.644 C 329.419,227.512 330.904,228.134 331.507,227.79 C 333.756,226.51 333.509,224.947 336.762,225.169 C 338.311,223.932 339.727,224.628 341.24,223.593 C 342.091,223.011 343.659,221.148 344.184,220.922 C 346.554,219.904 349.994,221.133 352.373,219.739 C 353.064,219.333 352.945,218.381 353.422,217.803 C 355.425,215.378 358.423,214.09 360.349,211.428 C 361.108,211.294 361.877,211.606 362.64,211.586 C 363.44,209.831 364.762,207.805 365.99,206.316 C 366.556,205.629 367.431,205.223 367.909,204.464 C 368.41,203.671 368.445,202.508 369.001,201.794 C 369.369,201.319 370.011,201.15 370.471,200.788 C 371.195,200.217 371.725,199.44 372.488,198.913 C 376.203,196.346 379.866,197.573 383.817,193.341 C 385.101,191.965 385.661,189.331 386.958,188.294 C 387.492,187.866 388.192,187.753 388.731,187.332 C 389.417,186.797 389.684,186.202 390.623,186.04 C 391.697,185.854 392.773,186.302 393.855,186.179 C 394.82,186.069 396.162,185.378 397.09,185.547 C 397.548,186.323 398.045,187.298 398.671,187.942 C 400.67,189.996 403.787,188.897 406.266,189.034 C 408.688,189.168 410.835,190.578 413.194,191.011 C 415.041,191.35 418.52,190.803 419.897,192.184 C 421.345,193.639 420.173,194.925 420.876,196.182 C 422.363,198.836 421.005,197.547 421.366,199.392 C 421.757,201.383 424.288,201.894 424.999,203.594 C 425.418,204.594 424.575,205.775 424.896,206.509 C 425.337,207.52 426.594,208.073 426.97,209.238 C 427.147,209.785 426.848,210.466 427.24,210.946 C 429.365,211.413 428.83,211.582 430.008,213.004 C 430.628,213.752 431.545,214.188 432.088,215.009 C 433.834,217.65 434.01,221.253 435.559,223.967 C 436.349,225.35 441.044,228.29 441.226,229.711 C 441.268,230.038 441.225,230.407 441.224,230.736 C 441.607,230.633 442.274,230.985 442.541,231.225 C 443.917,234.435 444.438,240.014 443.029,243.382 C 442.776,243.986 442.308,244.47 442.119,245.104 C 442.515,246.128 444.056,250.243 444.496,250.846 C 445.016,251.559 445.66,250.895 446.405,252.971 C 446.736,253.891 445.716,255.19 446.757,255.869 C 447.35,256.256 449.513,254.822 450.407,254.853 C 453.45,254.959 457.273,257.926 459.655,258.094 C 461.865,258.25 463.678,256.028 466.027,256.137 C 467.263,256.195 468.646,256.858 469.87,256.551 C 473.196,255.716 471.634,250.83 481.522,251.037 C 482.343,250.218 482.129,245.207 484.589,244.28 C 485.25,244.031 485.992,244.221 486.636,244.436 C 489.883,245.519 484.722,252.16 488.006,252.106 C 489.301,252.085 495.715,249.192 495.506,247.807 C 495.467,247.55 492.441,243.848 492.218,243.107 C 491.741,241.517 493.274,241.553 492.753,240.257 C 492.164,238.792 490.921,239.854 490.523,239.263 C 489.717,238.068 490.192,235.332 489.016,234.141 C 488.302,233.417 486.974,232.818 486.409,232.067 C 486.1,231.655 487.338,230.468 486.473,229.358 C 485.803,228.496 483.01,227.628 483.24,226.232 C 483.424,225.12 485.803,225.48 486.533,224.79 C 487.441,223.93 487.503,222.207 488.137,221.123 C 489.408,218.951 491.727,217.614 493.048,215.481 C 494.268,213.515 491.02,211.386 492.2,208.951 C 493.588,206.087 502.918,199.697 500.222,193.63 C 499.447,191.885 498.704,190.616 499.949,188.832 C 503.563,183.647 503.146,191.239 505.994,187.778 C 507.797,185.588 509.983,180.106 511.616,178.697 C 513.724,176.877 516.9,176.958 518.746,174.752 C 519.974,173.286 520.018,171.017 521.16,169.401 C 522.225,167.893 523.703,167.195 524.881,165.928 C 525.219,165.563 524.227,163.471 524.609,162.79 C 525.746,160.761 528.379,163.061 529.965,162.953 C 532.325,162.792 532.85,159.243 538.094,161.985 C 539.408,162.673 542.689,169.195 545.875,170.937 C 552.753,174.695 556.359,172.693 554.769,164.658 C 554.02,160.875 549.355,159.409 549.228,155.728 C 549.144,153.291 553.889,150.336 554.857,148.089 C 556.046,145.33 551.712,145.245 552.918,143.217 C 555.723,138.499 559.879,148.259 564.931,145.296 C 567.619,143.719 564.053,139.748 567.624,139.261 C 576.598,138.037 572.517,143.388 576.849,144.609 C 578.58,145.097 583.242,141.674 585.969,145.536 C 587.346,147.485 588.503,149.862 589.701,151.944 C 591.235,154.609 591.086,162.645 594.071,164.366 C 598.384,166.853 600.237,161.333 603.256,160.486 C 605.358,159.896 606.039,162.762 607.302,162.72 C 609.661,162.642 609.595,160.343 611.031,159.455 C 612.249,158.703 613.684,159.044 614.943,158.579 C 617.077,157.79 618.563,152.338 622.229,151.618 C 626.578,150.763 628.26,154.995 628.997,155.122 C 629.8,155.261 634.356,152.562 635.607,152.509 C 636.329,152.478 637.429,153.343 638.11,153.644 C 640.76,154.817 643.935,154.971 646.423,156.511 C 646.768,160.459 654.489,158.211 657.277,158.937 C 658.664,159.299 659.966,160.642 661.345,161.184 C 665.532,162.83 672.834,162.723 674.658,167.64 C 675.228,169.178 678.663,170.457 679.367,168.898 C 679.644,168.284 678.978,166.508 679.94,165.343 C 683.685,164.712 682.9,164.42 685.288,160.957 C 685.708,155.085 686.356,155.152 690.479,149.988 C 691.992,148.093 704.095,154.462 707.007,153.572 C 707.444,153.438 707.752,153.114 708.19,152.978 C 708.545,152.461 709.128,152.175 709.523,151.694 C 711.108,149.762 710.279,147.668 711.108,145.662 C 711.453,144.828 712.499,144.644 712.794,143.761 C 713.147,142.703 712.966,141.604 713.573,140.596 C 716.848,140.998 719.898,138.172 721.247,135.48 C 721.821,134.333 721.592,128.949 722.228,128.732 C 724.786,127.859 729.091,136.463 733.975,132.143 C 736.604,129.817 738.036,126.532 740.14,123.79 C 741.055,122.597 742.555,122.03 743.41,120.774 C 745.241,118.085 741.245,112.868 746.455,111.061 C 747.517,110.692 748.706,110.978 749.801,110.987 C 760.344,111.075 759.378,122.469 763.386,120.998 C 766.039,120.023 767.137,124.686 770.128,125.125 C 775.192,125.869 785.079,123.799 789.338,120.955 C 790.265,120.336 792.327,114.599 792.236,113.548 C 791.798,108.5 789.971,107.152 792.729,102.046 C 793.28,101.026 793.957,100.004 794.964,99.384 C 795.377,99.131 795.885,98.762 796.404,98.881 C 797.37,99.432 797.8,100.463 798.771,100.946 C 800.756,101.934 801.233,101.884 801.645,102.025 C 802.106,102.183 802.486,102.581 804.814,104.948 C 805.597,104.787 806.212,105.135 806.502,105.878 C 807.821,106.349 808.265,107.73 809.703,108.039 C 809.918,108.979 812.544,110.317 813.416,110.868 C 814.184,110.873 814.969,110.891 815.728,111.017 C 817.194,113.4 819.715,112.305 821.374,113.92 L 821.507,114.943 C 822.429,115.744 825.983,117.526 826.224,117.81 C 826.819,118.509 826.162,119.454 827.116,120.119 C 828.501,121.087 830.746,121.308 831.529,121.813 C 832.093,122.176 831.557,123.386 833.405,124.678 L 833.519,125.275 C 834.074,125.864 834.17,126.448 835.015,126.763 C 835.409,126.909 836.393,126.47 836.494,127.062 C 840.787,130.443 840.657,122.333 845.776,122.333 C 846.408,122.333 847.04,122.054 847.614,122.446 C 848.593,123.113 849.365,125.015 850.267,125.907 C 850.984,126.617 853.63,127.07 854.075,127.675 C 857.62,128.692 856.429,125.345 857.637,124.884 C 859.476,124.181 865.593,125.884 867.906,125.943 C 871.559,126.036 870.915,120.696 872.965,119.189 C 873.686,118.659 875.528,120.514 876.621,120.343 C 879.325,119.921 878.049,116.598 881.168,118.35 C 881.439,118.818 881.628,119.326 881.888,119.801 C 883.688,120.571 884.422,122.512 886.871,122.052 C 887.405,121.951 888.169,120.408 888.67,120.007 C 889.13,119.638 889.664,119.313 890.092,118.908 C 890.286,118.723 890.23,117.768 890.375,117.494 C 891.254,115.847 892.176,114.501 892.952,112.746 C 895.293,113.714 893.185,114.289 897.877,115 C 898.535,116.111 899.397,115.234 899.905,117.01 C 900.849,116.923 901.104,117.17 901.268,118.145 C 901.831,118.664 902.593,119.022 903.315,119.262 C 904.699,117.888 906.315,114.555 907.633,113.697 C 908.528,113.115 909.639,113.68 910.305,112.655 C 913.389,107.908 906.443,106.701 915.799,103.608 C 916.973,103.22 919.368,102.046 920.479,102.066 C 921.8,102.09 921.468,103.617 922.279,103.795 C 923.25,104.009 924.667,103.528 925.689,103.479 C 926.122,102.954 932.741,103.887 934.802,102.772 C 935.623,102.328 938.336,100.734 938.704,99.998 C 938.914,99.578 938.928,99.069 939.291,98.733 C 942.425,95.837 939.479,96.443 937.019,96.517 C 934.318,92.753 940.389,94.051 941.717,93.24 C 943.528,92.135 940.625,87.835 945.998,87.23 C 946.443,86.779 946.906,86.341 947.396,85.939 C 951.542,82.544 951.126,87.734 953.292,88.233 C 953.675,88.321 955.563,87.647 955.584,87.21 C 956.96,86.486 957.194,84.503 958.331,83.507 C 962.32,80.011 967.873,80.173 972.844,80.175 L 972.864,81.08 C 971.478,81.963 968.864,82.175 967.786,83.34 C 966.718,84.493 967.411,85.385 966.839,86.392 C 966.497,86.993 965.796,87.263 965.399,87.824 C 964.774,88.707 964.95,89.819 964.641,90.804 C 964.336,91.779 963.533,92.619 963.467,93.669 C 963.426,94.329 963.693,95.103 963.997,95.679 C 965.204,97.969 969.844,100.21 971.841,102.101 C 973.212,103.4 972.967,105.03 974.872,106.289 C 976.96,107.669 979.561,108.232 981.351,110.069 C 982.254,110.997 983.136,113.157 984.097,113.753 C 984.236,113.839 987.354,114.397 987.886,114.536 C 992.094,115.643 993.21,116.759 996.522,119.307 z"/></svg>